<?xml version="1.0" ?><svg enable-background="new 0 0 512 512" id="Layer_1" version="1.1" viewBox="0 0 512 512" xml:space="preserve" xmlns="http://www.w3.org/2000/svg" xmlns:xlink="http://www.w3.org/1999/xlink"><g><g><linearGradient gradientUnits="userSpaceOnUse" id="SVGID_1_" x1="0.0000038" x2="512" y1="256" y2="256"><stop offset="0" style="stop-color:#95A5A6"/><stop offset="1" style="stop-color:#7F8C8D"/></linearGradient><circle cx="256" cy="256" fill="url(#SVGID_1_)" r="256"/><linearGradient gradientUnits="userSpaceOnUse" id="SVGID_2_" x1="42.6666679" x2="469.3333435" y1="256.0005188" y2="256.0005188"><stop offset="0" style="stop-color:#7F8C8D"/><stop offset="1" style="stop-color:#95A5A6"/></linearGradient><path d="M256,469.3338623c-117.6314697,0-213.3333282-95.7023926-213.3333282-213.3333435    c0-117.6314545,95.7018585-213.333313,213.3333282-213.333313c117.6357422,0,213.3333435,95.7018661,213.3333435,213.333313    C469.3333435,373.6314697,373.6357422,469.3338623,256,469.3338623z" fill="url(#SVGID_2_)"/></g><g><path d="M370.5413208,298.3557434c-17.9450684-17.9445496-47.0389099-17.9445496-64.9839783,0    c-17.9445496,17.9440002-17.9445496,47.0383911,0,64.9839783c17.9450684,17.9445496,47.0389099,17.9445496,64.9839783,0    C388.4858704,345.3941345,388.4858704,316.2997437,370.5413208,298.3557434z M361.5109253,347.2373352l-7.0704041,7.0704041    l-16.3893127-16.3887939l-16.3888245,16.3887939l-7.0703735-7.0704041l16.3893127-16.3887939l-16.3893127-16.3893433    l7.0703735-7.0704041l16.3888245,16.3893433l16.3893127-16.3893433l7.0704041,7.0704041l-16.3887939,16.3893433    L361.5109253,347.2373352z" opacity="0.3"/><circle cx="249.5554657" cy="201.0233307" opacity="0.3" r="49.8222656"/><path d="M298.4885254,291.2853394c8.2389526-8.2384033,18.6064148-13.5450745,29.8538818-15.5029297    c-5.7845459-6.493866-12.3013306-12.3216248-19.5151978-17.2250671c-0.7849731-0.5333557-2.3658752-1.5599976-2.3658752-1.5599976    c-12.7354736,17.6815796-33.4986572,29.2133179-56.9061279,29.2133179c-23.4090729,0-44.1743164-11.5354614-56.9093323-29.2197266    c0,0-1.328537,0.8693237-1.988266,1.3135986C162.5125275,277.2634583,144,309.4261475,144,345.9136047v11.0677185h144.5813293    C277.4378662,335.8517456,280.7370605,309.0368042,298.4885254,291.2853394z" opacity="0.3"/></g><g><path d="M362.5413208,290.3557434c-17.9450684-17.9445496-47.0389099-17.9445496-64.9839783,0    c-17.9445496,17.9440002-17.9445496,47.0383911,0,64.9839783c17.9450684,17.9445496,47.0389099,17.9445496,64.9839783,0    C380.4858704,337.3941345,380.4858704,308.2997437,362.5413208,290.3557434z M353.5109253,339.2373352l-7.0704041,7.0704041    l-16.3893127-16.3887939l-16.3888245,16.3887939l-7.0703735-7.0704041l16.3893127-16.3887939l-16.3893127-16.3893433    l7.0703735-7.0704041l16.3888245,16.3893433l16.3893127-16.3893433l7.0704041,7.0704041l-16.3887939,16.3893433    L353.5109253,339.2373352z" fill="#FFFFFF"/><circle cx="241.5554657" cy="193.0233307" fill="#FFFFFF" r="49.8222656"/><path d="M290.4885254,283.2853394c8.2389526-8.2384033,18.6064148-13.5450745,29.8538818-15.5029297    c-5.7845459-6.493866-12.3013306-12.3216095-19.5151978-17.2250824c-0.7849731-0.5333252-2.3658752-1.5599976-2.3658752-1.5599976    c-12.7354736,17.6815948-33.4986572,29.2133331-56.9061279,29.2133331c-23.4090729,0-44.1743164-11.5354614-56.9093323-29.2197266    c0,0-1.328537,0.8693237-1.988266,1.3135986C154.5125275,269.2634583,136,301.4261475,136,337.9136047v11.0677185h144.5813293    C269.4378662,327.8517456,272.7370605,301.0368042,290.4885254,283.2853394z" fill="#FFFFFF"/></g></g></svg>