<?xml version="1.0" ?><svg id="Capa_1" style="enable-background:new 0 0 200 200;" version="1.1" viewBox="0 0 200 200" xml:space="preserve" xmlns="http://www.w3.org/2000/svg" xmlns:xlink="http://www.w3.org/1999/xlink"><style type="text/css">
	.st0{fill:#CAD568;}
	.st1{opacity:0.55;fill:#9FA34F;}
	.st2{fill:#D7D7D7;}
	.st3{opacity:0.1;fill:#636363;}
	.st4{fill:#EFEFEE;}
	.st5{fill:#BA6363;}
	.st6{opacity:0.55;fill:#924B4B;}
	.st7{fill:#FFFFFF;}
	.st8{fill:#A5639D;}
	.st9{opacity:0.55;fill:#8F4B8F;}
	.st10{fill:#78A7CA;}
	.st11{fill:#6188AE;}
	.st12{opacity:0.45;fill:#6A84B4;}
	.st13{fill:#62A99D;}
	.st14{opacity:0.55;fill:#498980;}
	.st15{fill:#E1D64F;}
	.st16{fill:#D2CB4D;}
	.st17{opacity:0.55;fill:#AFA747;}
	.st18{fill:#5D6BA2;}
	.st19{opacity:0.55;fill:#464781;}
	.st20{fill:#63A460;}
	.st21{opacity:0.55;fill:#4E894A;}
	.st22{fill:#BD7E34;}
	.st23{opacity:0.55;fill:#985B1E;}
	.st24{fill:#ACC567;}
	.st25{opacity:0.55;fill:#799B4F;}
	.st26{fill:#C23C3F;}
	.st27{opacity:0.55;fill:#6D191B;}
</style><g><g><path class="st18" d="M162.2,61.5l35.3,40.2c0-0.7,0-1.4,0-2.1C197.5,45.7,153.8,2,99.9,2S2.3,45.7,2.3,99.6    c0,49.6,37,90.6,85,96.8l-47.9-54.6L162.2,61.5z"/><path class="st11" d="M197.5,101.7l-35.3-40.2L39.4,141.8l47.9,54.6c4.1,0.5,8.3,0.8,12.6,0.8    C153.1,197.2,196.4,154.7,197.5,101.7z"/><path class="st19" d="M197.5,101.7l-35.3-40.2L39.4,141.8l47.9,54.6c4.1,0.5,8.3,0.8,12.6,0.8    C153.1,197.2,196.4,154.7,197.5,101.7z"/></g><g><rect class="st2" height="80.3" width="122.8" x="39.4" y="61.5"/><polygon class="st3" points="39.4,141.8 100.8,87.6 162.2,141.8   "/><polygon class="st4" points="39.4,61.5 100.8,124.1 162.2,61.5   "/></g><circle class="st11" cx="162.3" cy="108.4" r="12"/><g><g><path class="st7" d="M162.2,113.7c-1.4,0-2.8-0.5-3.9-1.6c-2.1-2.1-2.1-5.6,0-7.7c2.1-2.1,5.6-2.1,7.7,0c2.1,2.1,2.1,5.6,0,7.7     C165,113.2,163.6,113.7,162.2,113.7z M162.2,105.6c-0.7,0-1.4,0.3-1.9,0.8c-1,1-1,2.7,0,3.8c1,1,2.7,1,3.8,0c1-1,1-2.7,0-3.8     C163.6,105.8,162.9,105.6,162.2,105.6z"/><rect class="st7" height="4.3" transform="matrix(0.7071 -0.7071 0.7071 0.7071 -30.857 150.8239)" width="2.8" x="165.2" y="110.5"/><rect class="st7" height="4.3" transform="matrix(0.7071 -0.7071 0.7071 0.7071 -27.1994 141.9937)" width="2.8" x="156.4" y="101.7"/><rect class="st7" height="2.8" transform="matrix(0.7071 -0.7071 0.7071 0.7071 -33.4433 144.58)" width="4.3" x="155.6" y="111.3"/><rect class="st7" height="2.8" transform="matrix(0.7071 -0.7071 0.7071 0.7071 -24.613 148.2376)" width="4.3" x="164.5" y="102.4"/></g><rect class="st7" height="3.7" width="2.8" x="160.8" y="100.5"/><rect class="st7" height="4" width="2.8" x="160.8" y="112.3"/><rect class="st7" height="2.8" width="4.2" x="166.3" y="106.8"/><rect class="st7" height="2.8" width="4.1" x="154.1" y="106.8"/></g></g></svg>