<?xml version="1.0"?><svg xmlns="http://www.w3.org/2000/svg" version="1.1" fill="#666" width="24px" height="24px" viewBox="0 0 50 50" xmlns:xlink="http://www.w3.org/1999/xlink" baseProfile="tiny" id="Слой_1" xml:space="preserve"><g><path d="M49,46.1L37.2,34.3c2.9-3.6,4.7-8.2,4.7-13.1c0-11.4-9.3-20.7-20.7-20.7C9.7,0.4,0.4,9.7,0.4,21.1s9.3,20.7,20.7,20.7&#xd;&#xa;&#x9;&#x9;c5,0,9.6-1.8,13.1-4.7L46.1,49c0.8,0.8,2.1,0.8,2.9,0C49.8,48.2,49.8,46.9,49,46.1z M21.1,37.7c-9.2,0-16.6-7.4-16.6-16.6&#xd;&#xa;&#x9;&#x9;S12,4.5,21.1,4.5c9.2,0,16.6,7.5,16.6,16.6S30.3,37.7,21.1,37.7z"/></g></svg>