<?xml version="1.0" ?><svg id="Layer_1" style="enable-background:new 0 0 512 512;" version="1.1" viewBox="0 0 512 512" xml:space="preserve" xmlns="http://www.w3.org/2000/svg" xmlns:xlink="http://www.w3.org/1999/xlink"><style type="text/css">
	.st0{fill:#A5353D;}
	.st1{opacity:0.1;}
	.st2{fill:#C9494F;}
	.st3{fill:#FFFFFF;}
</style><g><g><circle class="st0" cx="256" cy="256" id="XMLID_39_" r="250"/><circle class="st1" cx="262.8" cy="265.3" id="XMLID_36_" r="202.8"/><circle class="st2" cx="256" cy="256" id="XMLID_35_" r="202.8"/></g><g><polygon class="st3" id="XMLID_12_" points="259.3,165.9 259.2,165.9 255.3,177.3 263.2,177.3   "/><path class="st3" d="M256,256c0-38.7,31.3-70,70-70c0-38.7-31.3-70-70-70s-70,31.3-70,70C224.7,186,256,217.3,256,256z     M257.8,160.7h3.1l9.3,26.4h-3.6l-2.3-6.8h-9.9l-2.4,6.8h-3.6L257.8,160.7z"/><path class="st3" d="M337.8,251.2c0.8-0.7,1.2-1.7,1.2-3.1c0-1.4-0.4-2.5-1.3-3.2c-0.9-0.7-2.2-1.1-3.9-1.1h-5v8.4    h5.8C335.9,252.3,337,252,337.8,251.2z" id="XMLID_9_"/><path class="st3" d="M335.8,255.1h-0.2h-6.7v9.6h6.9c1.6,0,2.9-0.4,3.8-1.2c0.9-0.8,1.3-1.9,1.3-3.4    c0-1.5-0.5-2.6-1.4-3.5C338.5,255.6,337.3,255.2,335.8,255.1z" id="XMLID_8_"/><path class="st3" d="M326,186c0,38.7-31.3,70-70,70c38.7,0,70,31.3,70,70c38.7,0,70-31.3,70-70C396,217.3,364.7,186,326,186z     M342.1,265.6c-1.6,1.3-3.7,1.9-6.4,1.9h-10.4v-26.4h8.6c2.8,0,4.9,0.6,6.5,1.8c1.6,1.2,2.3,3,2.3,5.4c0,1.1-0.4,2.2-1,3.1    c-0.7,0.9-1.6,1.6-2.8,2.1c1.7,0.2,3.1,1,4.1,2.2c1,1.3,1.5,2.7,1.5,4.4C344.4,262.4,343.6,264.3,342.1,265.6z"/><path class="st3" d="M256,256c0,38.7-31.3,70-70,70c0,38.7,31.3,70,70,70s70-31.3,70-70C287.3,326,256,294.7,256,256z M257,346.3    c1.1,1.6,2.7,2.3,4.6,2.3c1.9,0,3.4-0.5,4.5-1.6c1.1-1,1.6-2.5,1.6-4.3h3.3l0,0.1c0,2.4-0.8,4.4-2.5,6c-1.7,1.6-4,2.4-6.9,2.4    c-2.9,0-5.3-1-7.1-3.1c-1.8-2.1-2.7-4.7-2.7-7.8v-4.6c0-3.2,0.9-5.8,2.7-7.8c1.8-2.1,4.2-3.1,7.1-3.1c2.9,0,5.2,0.8,6.9,2.3    c1.7,1.5,2.5,3.6,2.5,6.1l0,0.1h-3.3c0-1.8-0.5-3.2-1.6-4.3c-1.1-1-2.5-1.6-4.5-1.6c-1.9,0-3.5,0.8-4.6,2.3    c-1.2,1.6-1.7,3.5-1.7,5.8v4.6C255.3,342.8,255.9,344.7,257,346.3z"/><path class="st3" d="M175.9,243.8h-4.7v20.8h4.7c2.4,0,4.4-0.8,5.8-2.4c1.4-1.6,2.1-3.7,2.1-6.2v-3.6    c0-2.5-0.7-4.5-2.1-6.1C180.2,244.6,178.3,243.8,175.9,243.8z" id="XMLID_3_"/><path class="st3" d="M256,256c-38.7,0-70-31.3-70-70c-38.7,0-70,31.3-70,70c0,38.7,31.3,70,70,70C186,287.3,217.3,256,256,256z     M187.3,255.9c0,3.4-1,6.1-3.1,8.2c-2.1,2.1-4.9,3.2-8.3,3.2h-8.3V241h8.3c3.4,0,6.2,1.1,8.3,3.2c2.1,2.1,3.1,4.9,3.1,8.2V255.9z"/></g></g></svg>