<?xml version="1.0" ?><svg id="Layer_1" style="enable-background:new 0 0 512 512;" version="1.1" viewBox="0 0 512 512" xml:space="preserve" xmlns="http://www.w3.org/2000/svg" xmlns:xlink="http://www.w3.org/1999/xlink"><style type="text/css">
	.st0{fill:#635A4B;}
	.st1{opacity:0.1;}
	.st2{fill:#847D6E;}
	.st3{fill:#FFFFFF;}
</style><g><g><circle class="st0" cx="256" cy="256" id="XMLID_348_" r="250"/><circle class="st1" cx="262.8" cy="265.3" id="XMLID_347_" r="202.8"/><circle class="st2" cx="256" cy="256" id="XMLID_346_" r="202.8"/></g><g><g id="XMLID_254_"><g id="XMLID_268_"><path class="st3" d="M256,116c-77.3,0-140,62.7-140,140s62.7,140,140,140c77.3,0,140-62.7,140-140      S333.3,116,256,116z M311.8,311.8c0,30.8-25,55.8-55.8,55.8c-30.8,0-55.8-25-55.8-55.8c-30.8,0-55.8-25-55.8-55.8      s25-55.8,55.8-55.8c0-30.8,25-55.8,55.8-55.8c30.8,0,55.8,25,55.8,55.8c30.8,0,55.8,25,55.8,55.8S342.7,311.8,311.8,311.8z" id="XMLID_284_"/><path class="st3" d="M256,390.4c-35.9,0-69.7-14-95-39.4c-25.4-25.4-39.4-59.1-39.4-95s14-69.7,39.4-95      s59.1-39.4,95-39.4c35.9,0,69.6,14,95,39.4c25.4,25.4,39.4,59.1,39.4,95s-14,69.7-39.4,95C325.7,376.4,291.9,390.4,256,390.4z       M194.8,317.2c2.7,31.4,29.1,56.1,61.2,56.1s58.5-24.7,61.2-56.1c31.4-2.7,56.1-29.1,56.1-61.2s-24.7-58.5-56.1-61.2      c-2.7-31.4-29.1-56.1-61.2-56.1s-58.5,24.7-61.2,56.1c-31.4,2.7-56.1,29.1-56.1,61.2S163.4,314.5,194.8,317.2z" id="XMLID_281_"/><g id="XMLID_279_"><path class="st3" d="M278.7,300.9c9.3,6.9,20.7,10.9,33.2,10.9c0-12.4-4.1-23.9-10.9-33.2       C296.1,288.3,288.3,296.1,278.7,300.9z" id="XMLID_280_"/></g><path class="st3" d="M211.1,278.7c-6.9,9.3-10.9,20.7-10.9,33.2c12.4,0,23.9-4.1,33.2-10.9      C223.7,296.1,215.9,288.3,211.1,278.7z" id="XMLID_278_"/><g id="XMLID_276_"><path class="st3" d="M300.9,233.3c6.9-9.3,10.9-20.7,10.9-33.2c-12.4,0-23.9,4.1-33.2,10.9       C288.3,215.9,296.1,223.7,300.9,233.3z" id="XMLID_277_"/></g><g id="XMLID_274_"><path class="st3" d="M233.3,211.1c-9.3-6.9-20.7-10.9-33.2-10.9c0,12.4,4.1,23.9,10.9,33.2       C215.9,223.7,223.7,215.9,233.3,211.1z" id="XMLID_275_"/></g><g id="XMLID_272_"><path class="st3" d="M256,256c18.4,0,34.8,8.9,44.9,22.7c3.4-6.8,5.4-14.5,5.4-22.7c0-8.2-1.9-15.9-5.4-22.7       C290.8,247.1,274.4,256,256,256z" id="XMLID_273_"/></g><path class="st3" d="M256,256c-18.4,0-34.8-8.9-44.9-22.7c-3.4,6.8-5.4,14.5-5.4,22.7c0,8.2,1.9,15.9,5.4,22.7      C221.2,264.9,237.6,256,256,256z" id="XMLID_271_"/><path class="st3" d="M256,256c0,18.4-8.9,34.8-22.7,44.9c6.8,3.4,14.5,5.4,22.7,5.4c8.2,0,15.9-1.9,22.7-5.4      C264.9,290.8,256,274.4,256,256z" id="XMLID_270_"/><path class="st3" d="M256,256c0-18.4,8.9-34.8,22.7-44.9c-6.8-3.4-14.5-5.4-22.7-5.4c-8.2,0-15.9,1.9-22.7,5.4      C247.1,221.2,256,237.6,256,256z" id="XMLID_269_"/></g><g id="XMLID_255_"><path class="st3" d="M260.2,191.2h-8.3l-2,5.7h-3.1l8-22.1h2.6l7.8,22.1h-3.1L260.2,191.2z M252.7,188.6h6.6      l-3.2-9.5H256L252.7,188.6z" id="XMLID_265_"/><path class="st3" d="M314.9,267.1v-22.1h7.2c2.3,0,4.1,0.5,5.4,1.5s2,2.5,2,4.5c0,1-0.3,1.8-0.9,2.6      c-0.6,0.8-1.4,1.3-2.3,1.7c1.4,0.2,2.6,0.8,3.4,1.9c0.8,1.1,1.3,2.3,1.3,3.7c0,2-0.7,3.6-2,4.6c-1.3,1.1-3.1,1.6-5.3,1.6H314.9z       M317.9,254.3h4.8c1.1,0,2-0.3,2.7-0.9s1-1.5,1-2.6c0-1.2-0.4-2.1-1.1-2.7c-0.8-0.6-1.8-0.9-3.3-0.9h-4.2V254.3z M317.9,256.7v8      h5.8c1.4,0,2.4-0.3,3.2-1c0.8-0.7,1.1-1.6,1.1-2.9c0-1.2-0.4-2.2-1.2-3c-0.8-0.7-1.8-1.1-3.1-1.2h-0.2H317.9z" id="XMLID_261_"/><path class="st3" d="M268.6,328.8L268.6,328.8c0.1,2.1-0.6,3.8-2.1,5.2c-1.5,1.4-3.4,2-5.8,2      c-2.4,0-4.4-0.9-5.9-2.6c-1.5-1.7-2.3-3.9-2.3-6.6V323c0-2.6,0.8-4.8,2.3-6.6c1.5-1.7,3.5-2.6,5.9-2.6c2.4,0,4.4,0.6,5.8,1.9      c1.4,1.3,2.1,3,2.1,5.1l0,0.1h-2.8c0-1.5-0.4-2.7-1.3-3.6c-0.9-0.9-2.1-1.3-3.8-1.3c-1.6,0-2.9,0.7-3.9,2      c-1,1.3-1.4,2.9-1.4,4.9v3.9c0,2,0.5,3.6,1.4,4.9c1,1.3,2.3,2,3.9,2c1.6,0,2.9-0.4,3.8-1.3c0.9-0.9,1.3-2.1,1.3-3.6H268.6z" id="XMLID_259_"/><path class="st3" d="M181.5,267.1v-22.1h7c2.9,0,5.2,0.9,7,2.7c1.8,1.8,2.6,4.1,2.6,6.9v3      c0,2.8-0.9,5.1-2.6,6.9c-1.8,1.8-4.1,2.7-7,2.7H181.5z M184.5,247.3v17.4h4c2,0,3.7-0.7,4.8-2c1.2-1.3,1.8-3.1,1.8-5.2v-3.1      c0-2.1-0.6-3.8-1.8-5.2c-1.2-1.3-2.8-2-4.8-2H184.5z" id="XMLID_256_"/></g></g></g></g></svg>