<?xml version="1.0" ?><svg id="Layer_1" style="enable-background:new 0 0 512 512;" version="1.1" viewBox="0 0 512 512" xml:space="preserve" xmlns="http://www.w3.org/2000/svg" xmlns:xlink="http://www.w3.org/1999/xlink"><style type="text/css">
	.st0{fill:#635A4B;}
	.st1{opacity:0.1;}
	.st2{fill:#847D6E;}
	.st3{fill:#FFFFFF;}
</style><g><g><circle class="st0" cx="256" cy="256" id="XMLID_44_" r="250"/><circle class="st1" cx="262.8" cy="265.3" id="XMLID_41_" r="202.8"/><circle class="st2" cx="256" cy="256" id="XMLID_40_" r="202.8"/></g><g><g><path class="st3" d="M256,116c-36.5,0-66.5,27.9-69.7,63.6c10.2,0,20.1,2.1,29.4,6c9.1,3.8,17.3,9.4,24.3,16.4     c7,7,12.5,15.2,16.4,24.3c3.9,9.3,6,19.2,6,29.4C298,252.5,326,222.5,326,186C326,147.3,294.6,116,256,116z M285.2,225.4l-1.7-5     h-7.4l-1.8,5h-2.7l7.1-19.6h2.3l6.9,19.6H285.2z"/><polygon class="st3" id="XMLID_10_" points="279.8,209.7 276.9,218.1 282.7,218.1 279.9,209.7    "/></g><g><path class="st3" d="M296.6,283.1h-0.2h-5v7.1h5.1c1.2,0,2.2-0.3,2.8-0.9c0.7-0.6,1-1.4,1-2.5c0-1.1-0.3-2-1-2.6     C298.6,283.5,297.7,283.1,296.6,283.1z" id="XMLID_9_"/><path class="st3" d="M298.1,280.2c0.6-0.5,0.9-1.3,0.9-2.3c0-1.1-0.3-1.9-1-2.4c-0.7-0.5-1.6-0.8-2.9-0.8h-3.7v6.2     h4.3C296.7,281,297.5,280.8,298.1,280.2z" id="XMLID_8_"/><path class="st3" d="M332.4,186.3c0,10.2-2.1,20.1-6,29.4c-3.8,9.1-9.4,17.3-16.4,24.3c-7,7-15.2,12.5-24.3,16.4     c-9.3,3.9-19.2,6-29.4,6c3.2,35.7,33.2,63.6,69.7,63.6c38.7,0,70-31.3,70-70C396,219.5,368,189.5,332.4,186.3z M301.3,290.9     c-1.2,0.9-2.7,1.4-4.7,1.4h-7.8v-19.6h6.4c2,0,3.6,0.4,4.8,1.3c1.2,0.9,1.7,2.2,1.7,4c0,0.8-0.3,1.6-0.8,2.3     c-0.5,0.7-1.2,1.2-2.1,1.5c1.3,0.2,2.3,0.7,3,1.7c0.7,0.9,1.1,2,1.1,3.3C303,288.6,302.4,289.9,301.3,290.9z"/></g><path class="st3" d="M274.3,312.3c-14-12.9-22.7-30.4-24.4-49.3l-0.6-6.7c-35.5,3.4-63.3,33.3-63.3,69.7c0,38.7,31.3,70,70,70    c36.5,0,66.5-27.9,69.7-63.6C306.6,332.3,288.4,325.2,274.3,312.3z M231.2,302.1c0.9,1.2,2,1.7,3.4,1.7c1.4,0,2.5-0.4,3.3-1.2    c0.8-0.8,1.2-1.8,1.2-3.2h2.5l0,0.1c0,1.8-0.6,3.3-1.9,4.5c-1.3,1.2-3,1.8-5.1,1.8c-2.2,0-3.9-0.8-5.3-2.3c-1.4-1.5-2-3.5-2-5.8    v-3.4c0-2.3,0.7-4.3,2-5.8c1.4-1.5,3.1-2.3,5.3-2.3c2.2,0,3.9,0.6,5.1,1.7s1.9,2.7,1.9,4.6l0,0.1h-2.5c0-1.3-0.4-2.4-1.2-3.2    c-0.8-0.8-1.9-1.2-3.3-1.2c-1.4,0-2.6,0.6-3.4,1.7c-0.9,1.2-1.3,2.6-1.3,4.3v3.4C229.9,299.5,230.4,301,231.2,302.1z"/><g><path class="st3" d="M219.4,224.7c-1.1-1.2-2.5-1.7-4.3-1.7l-3.5,0.1l0.3,15.4l3.5-0.1c1.8,0,3.2-0.7,4.2-1.9     c1-1.2,1.5-2.8,1.5-4.6l-0.1-2.7C221,227.4,220.4,225.9,219.4,224.7z" id="XMLID_3_"/><path class="st3" d="M186,186c-38.7,0-70,31.3-70,70c0,36.5,27.9,66.5,63.6,69.7c0.1-19,7.2-37.2,20-51.3     c12.8-14,30.3-22.7,49.1-24.5c0,0,6.9-0.6,7-0.6C252.3,213.8,222.4,186,186,186z M221.5,238.1c-1.5,1.6-3.6,2.4-6.1,2.5l-6.2,0.1     l-0.4-19.6l6.2-0.1c2.6-0.1,4.6,0.7,6.2,2.2c1.6,1.5,2.4,3.6,2.5,6.1l0.1,2.7C223.8,234.4,223.1,236.5,221.5,238.1z"/></g></g></g></svg>