<?xml version="1.0" ?><svg id="Layer_1" style="enable-background:new 0 0 512 512;" version="1.1" viewBox="0 0 512 512" xml:space="preserve" xmlns="http://www.w3.org/2000/svg" xmlns:xlink="http://www.w3.org/1999/xlink"><style type="text/css">
	.st0{fill:#A34B3A;}
	.st1{opacity:0.1;}
	.st2{fill:#BB6049;}
	.st3{fill:#FFFFFF;}
</style><g><g><circle class="st0" cx="256" cy="256" id="XMLID_19_" r="250"/><circle class="st1" cx="262.8" cy="265.3" id="XMLID_15_" r="202.8"/><circle class="st2" cx="256" cy="256" id="XMLID_14_" r="202.8"/></g><g><polygon class="st3" id="XMLID_18_" points="145.3,215.5 145.3,247.9 155.2,247.9 155.2,240.6 155.6,240.6 155.6,237.8     171.8,237.8 171.8,247.9 292.5,247.9 292.5,215.5   "/><polygon class="st3" id="XMLID_17_" points="180.8,231.7 180.8,264.1 187.5,264.1 187.5,254.6 205.5,254.6 205.5,264.1 327,264.1     327,231.7   "/><polygon class="st3" id="XMLID_16_" points="214,247.9 214,280.3 221.2,280.3 221.2,271 237.7,271 237.7,280.3 361.5,280.3     361.5,247.9   "/><g><g><polygon class="st3" id="XMLID_13_" points="128,225.8 125.3,233.6 130.8,233.6 128.1,225.8     "/><path class="st3" d="M116,211.4v40.5h24.1v-40.5H116z M133.1,240.3l-1.6-4.7h-6.8l-1.6,4.7h-2.5l6.5-18.2h2.1l6.4,18.2H133.1z"/></g><g><path class="st3" d="M165.6,246.5c0.6-0.5,0.9-1.2,0.9-2.1c0-1-0.3-1.7-0.9-2.2c-0.6-0.5-1.5-0.7-2.7-0.7h-3.5      v5.8h4C164.3,247.3,165,247,165.6,246.5z" id="XMLID_10_"/><path class="st3" d="M164.2,249.2H164h-4.6v6.6h4.7c1.1,0,2-0.3,2.6-0.8c0.6-0.6,0.9-1.3,0.9-2.3      c0-1-0.3-1.8-0.9-2.4C166.1,249.6,165.3,249.2,164.2,249.2z" id="XMLID_9_"/><path class="st3" d="M151.5,227.6v40.5h24.1v-40.5H151.5z M168.5,256.4c-1.1,0.9-2.5,1.3-4.4,1.3H157v-18.2h5.9      c1.9,0,3.4,0.4,4.5,1.2c1.1,0.8,1.6,2,1.6,3.7c0,0.8-0.2,1.5-0.7,2.1c-0.5,0.6-1.1,1.1-1.9,1.4c1.2,0.2,2.1,0.7,2.8,1.5      c0.7,0.9,1,1.9,1,3.1C170.2,254.2,169.6,255.5,168.5,256.4z"/></g><path class="st3" d="M184.7,243.9v40.5h24.1v-40.5H184.7z M192.8,269.7c0.8,1.1,1.9,1.6,3.2,1.6c1.3,0,2.4-0.4,3.1-1.1     c0.7-0.7,1.1-1.7,1.1-3h2.3l0,0.1c0,1.7-0.5,3-1.7,4.2c-1.2,1.1-2.8,1.7-4.7,1.7c-2,0-3.6-0.7-4.9-2.1c-1.3-1.4-1.9-3.2-1.9-5.4     v-3.1c0-2.2,0.6-4,1.9-5.4c1.3-1.4,2.9-2.1,4.9-2.1c2,0,3.6,0.5,4.8,1.6c1.2,1.1,1.8,2.5,1.7,4.2l0,0.1h-2.3     c0-1.2-0.4-2.2-1.1-2.9c-0.7-0.7-1.8-1.1-3.1-1.1c-1.3,0-2.4,0.5-3.2,1.6c-0.8,1.1-1.2,2.4-1.2,4v3.2     C191.6,267.3,192,268.6,192.8,269.7z"/><g><path class="st3" d="M228.6,273.2h-3.3v14.3h3.3c1.7,0,3-0.6,4-1.7c1-1.1,1.5-2.5,1.5-4.3v-2.5      c0-1.7-0.5-3.1-1.5-4.2C231.6,273.7,230.3,273.2,228.6,273.2z" id="XMLID_4_"/><path class="st3" d="M217.6,260.1v40.5h24.1v-40.5H217.6z M236.5,281.6c0,2.3-0.7,4.2-2.2,5.7c-1.4,1.5-3.3,2.2-5.7,2.2h-5.7      v-18.2h5.7c2.4,0,4.3,0.7,5.7,2.2c1.4,1.5,2.2,3.3,2.2,5.7V281.6z"/></g></g><rect class="st3" height="32.4" id="XMLID_1_" width="149.1" x="246.9" y="264.1"/></g></g></svg>