<?xml version="1.0" ?><svg id="Layer_1" style="enable-background:new 0 0 512 512;" version="1.1" viewBox="0 0 512 512" xml:space="preserve" xmlns="http://www.w3.org/2000/svg" xmlns:xlink="http://www.w3.org/1999/xlink"><style type="text/css">
	.st0{fill:#A5353D;}
	.st1{opacity:0.1;}
	.st2{fill:#C9494F;}
	.st3{fill:#FFFFFF;}
</style><g><g><circle class="st0" cx="256" cy="256" id="XMLID_6_" r="250"/><circle class="st1" cx="262.8" cy="265.3" id="XMLID_5_" r="202.8"/><circle class="st2" cx="256" cy="256" id="XMLID_4_" r="202.8"/></g><g><g id="XMLID_338_"><g id="XMLID_372_"><g id="XMLID_373_"><polygon class="st3" id="XMLID_378_" points="255.9,187.3 255.9,224 291,205.7      "/><g id="XMLID_376_"><polygon class="st3" id="XMLID_377_" points="329.5,255.4 292.8,255.4 311.2,290.6       "/></g><polygon class="st3" id="XMLID_375_" points="256.1,329.6 256.1,292.9 221,311.3      "/><polygon class="st3" id="XMLID_374_" points="182.5,256.3 219.2,256.3 200.8,221.2      "/></g></g><g id="XMLID_370_"><path class="st3" d="M364,157.8c-4.1,0-7.5-3.4-7.5-7.5c0-1.8,0.7-3.6,1.9-4.9h-97.1v38.8l41,21.4l-41,21.4V256      h105.1v-98.6C365.7,157.7,364.8,157.8,364,157.8z" id="XMLID_371_"/></g><path class="st3" d="M357.8,364.8c0-4,3.4-7.5,7.5-7.5c0.4,0,0.8,0,1.2,0.1v-96.2h-34.1l-21.2,40.6L290,261.2     h-33.9l-0.2,105.3H358C357.9,366,357.8,365.4,357.8,364.8z" id="XMLID_369_"/><path class="st3" d="M250.7,256H145.6v100.6c1.1-0.6,2.3-1,3.7-1c4.1,0,7.5,3.4,7.5,7.5c0,1.3-0.3,2.5-0.9,3.5     h94.9v-33.9l-41-21.4l41-21.4V256z" id="XMLID_368_"/><g id="XMLID_363_"><path class="st3" d="M126.1,126v38.9H165V126H126.1z M150.6,153l-1.6-4.7h-6.9l-1.6,4.7H138l6.6-18.2h2.1      l6.4,18.2H150.6z" id="XMLID_365_"/><polygon class="st3" id="XMLID_364_" points="145.6,138.5 142.9,146.3 148.3,146.3 145.7,138.5     "/></g><g id="XMLID_353_"><g id="XMLID_361_"><path class="st3" d="M367.1,146h-0.2h-4.6v6.6h4.8c1.1,0,2-0.3,2.6-0.8c0.6-0.6,0.9-1.3,0.9-2.4       c0-1-0.3-1.8-1-2.4C369,146.4,368.1,146.1,367.1,146z" id="XMLID_362_"/></g><g id="XMLID_359_"><path class="st3" d="M368.5,143.3c0.6-0.5,0.9-1.2,0.9-2.1c0-1-0.3-1.7-0.9-2.2c-0.6-0.5-1.5-0.7-2.7-0.7h-3.5       v5.8h4C367.2,144.1,367.9,143.8,368.5,143.3z" id="XMLID_360_"/></g><g id="XMLID_354_"><g id="XMLID_355_"><path class="st3" d="M347,126v38.9h38.9V126H347z M371.4,153.2c-1.1,0.9-2.5,1.3-4.4,1.3h-7.2v-18.2h5.9        c1.9,0,3.4,0.4,4.5,1.2c1.1,0.8,1.6,2.1,1.6,3.7c0,0.8-0.2,1.5-0.7,2.1s-1.1,1.1-1.9,1.4c1.2,0.2,2.1,0.7,2.8,1.6        c0.7,0.9,1,1.9,1,3.1C373.1,151.1,372.5,152.4,371.4,153.2z" id="XMLID_356_"/></g></g></g><g id="XMLID_348_"><g id="XMLID_349_"><path class="st3" d="M347,347.1V386h38.9v-38.9H347z M363.4,372.2c0.8,1.1,1.9,1.6,3.2,1.6       c1.3,0,2.4-0.4,3.1-1.1c0.7-0.7,1.1-1.7,1.1-3h2.3l0,0.1c0,1.7-0.6,3-1.7,4.2c-1.2,1.1-2.8,1.7-4.8,1.7c-2,0-3.6-0.7-4.9-2.1       c-1.3-1.4-1.9-3.2-1.9-5.4V365c0-2.2,0.6-4,1.9-5.4c1.3-1.4,2.9-2.1,4.9-2.1c2,0,3.6,0.5,4.8,1.6c1.2,1.1,1.8,2.5,1.7,4.2       l0,0.1h-2.3c0-1.2-0.4-2.2-1.1-2.9c-0.7-0.7-1.8-1.1-3.1-1.1c-1.3,0-2.4,0.5-3.2,1.6c-0.8,1.1-1.2,2.4-1.2,4v3.2       C362.2,369.7,362.6,371.1,363.4,372.2z" id="XMLID_350_"/></g></g><g id="XMLID_340_"><g id="XMLID_346_"><path class="st3" d="M144.5,359.4h-3.3v14.3h3.3c1.7,0,3-0.6,4-1.7c1-1.1,1.5-2.5,1.5-4.3v-2.5       c0-1.7-0.5-3.1-1.5-4.2C147.5,359.9,146.2,359.4,144.5,359.4z" id="XMLID_347_"/></g><g id="XMLID_341_"><g id="XMLID_342_"><path class="st3" d="M126.1,347.1V386H165v-38.9H126.1z M152.4,367.8c0,2.3-0.7,4.2-2.2,5.7        c-1.4,1.5-3.4,2.2-5.7,2.2h-5.7v-18.2h5.7c2.4,0,4.3,0.7,5.7,2.2c1.4,1.5,2.2,3.4,2.2,5.7V367.8z" id="XMLID_343_"/></g></g></g><path class="st3" d="M155.7,145.5c1.1,1.3,1.8,3,1.8,4.8c0,4-3.4,7.5-7.5,7.5c-1.6,0-3.2-0.6-4.4-1.5v94.6h33.9     l21.3-40.9l21.3,40.9h33.7l0.2-105.3H155.7z" id="XMLID_339_"/></g></g></g></svg>