<?xml version="1.0" ?><svg id="Layer_1" style="enable-background:new 0 0 512 512;" version="1.1" viewBox="0 0 512 512" xml:space="preserve" xmlns="http://www.w3.org/2000/svg" xmlns:xlink="http://www.w3.org/1999/xlink"><style type="text/css">
	.st0{fill:#3A4E66;}
	.st1{opacity:0.1;}
	.st2{fill:#516480;}
	.st3{fill:#FFFFFF;}
</style><g><g><circle class="st0" cx="256" cy="256" id="XMLID_354_" r="250"/><circle class="st1" cx="262.8" cy="265.3" id="XMLID_353_" r="202.8"/><circle class="st2" cx="256" cy="256" id="XMLID_352_" r="202.8"/></g><g><g id="XMLID_313_"><g id="XMLID_327_"><path class="st3" d="M326,186c38.1,0,69,30.4,70,68.2C395,178.3,333.7,117,257.8,116      C295.6,117,326,147.9,326,186z" id="XMLID_355_"/><path class="st3" d="M186,186c0-38.1,30.4-69,68.2-70C178.3,117,117,178.3,116,254.2      C117,216.4,147.9,186,186,186z" id="XMLID_351_"/><g id="XMLID_349_"><path class="st3" d="M396,257.8c-1,37.8-31.9,68.2-70,68.2c0,38.1-30.4,69-68.2,70       C333.7,395,395,333.7,396,257.8z" id="XMLID_350_"/></g><path class="st3" d="M186,326c-38.1,0-69-30.4-70-68.2c1,75.9,62.3,137.2,138.2,138.2      C216.4,395,186,364.1,186,326z" id="XMLID_348_"/><path class="st3" d="M396,254.2c0,0.6,0,1.2,0,1.8C396,255.4,396,254.8,396,254.2z" id="XMLID_347_"/><path class="st3" d="M396,256c0,0.6,0,1.2,0,1.8C396,257.2,396,256.6,396,256z" id="XMLID_346_"/><path class="st3" d="M116,256c0-0.6,0-1.2,0-1.8C116,254.8,116,255.4,116,256z" id="XMLID_345_"/><path class="st3" d="M116,257.8c0-0.6,0-1.2,0-1.8C116,256.6,116,257.2,116,257.8z" id="XMLID_344_"/><path class="st3" d="M256,396c-0.6,0-1.2,0-1.8,0C254.8,396,255.4,396,256,396z" id="XMLID_343_"/><path class="st3" d="M257.8,396c-0.6,0-1.2,0-1.8,0C256.6,396,257.2,396,257.8,396z" id="XMLID_342_"/><g id="XMLID_340_"><path class="st3" d="M284.4,312.3c11.6,8.6,26,13.7,41.6,13.7c0-15.6-5.1-29.9-13.7-41.6       C306.2,296.4,296.4,306.2,284.4,312.3z" id="XMLID_341_"/></g><path class="st3" d="M199.7,284.4c-8.6,11.6-13.7,26-13.7,41.6c15.6,0,29.9-5.1,41.6-13.7      C215.6,306.2,205.8,296.4,199.7,284.4z" id="XMLID_339_"/><path class="st3" d="M256,116c0.6,0,1.2,0,1.8,0C257.2,116,256.6,116,256,116z" id="XMLID_338_"/><path class="st3" d="M254.2,116c0.6,0,1.2,0,1.8,0C255.4,116,254.8,116,254.2,116z" id="XMLID_337_"/><path class="st3" d="M312.3,227.6c8.6-11.6,13.7-26,13.7-41.6c-15.6,0-29.9,5.1-41.6,13.7      C296.4,205.8,306.2,215.6,312.3,227.6z" id="XMLID_336_"/><path class="st3" d="M227.6,199.7c-11.6-8.6-26-13.7-41.6-13.7c0,15.6,5.1,29.9,13.7,41.6      C205.8,215.6,215.6,205.8,227.6,199.7z" id="XMLID_335_"/><g id="XMLID_333_"><path class="st3" d="M256,256c23.1,0,43.6,11.2,56.3,28.4c4.3-8.5,6.8-18.2,6.8-28.4s-2.4-19.9-6.8-28.4       C299.6,244.8,279.1,256,256,256z" id="XMLID_334_"/></g><path class="st3" d="M256,256c-23.1,0-43.6-11.2-56.3-28.4c-4.3,8.5-6.8,18.2-6.8,28.4s2.4,19.9,6.8,28.4      C212.4,267.2,232.9,256,256,256z" id="XMLID_332_"/><g id="XMLID_330_"><path class="st3" d="M256,256c0,23.1-11.2,43.6-28.4,56.3c8.5,4.3,18.2,6.8,28.4,6.8c10.2,0,19.9-2.4,28.4-6.8       C267.2,299.6,256,279.1,256,256z" id="XMLID_331_"/></g><g id="XMLID_328_"><path class="st3" d="M256,256c0-23.1,11.2-43.6,28.4-56.3c-8.5-4.3-18.2-6.8-28.4-6.8       c-10.2,0-19.9,2.4-28.4,6.8C244.8,212.4,256,232.9,256,256z" id="XMLID_329_"/></g></g><g id="XMLID_314_"><path class="st3" d="M267.2,175.1h-10.6l-2.5,7.3h-3.9l10.2-28.2h3.3l9.9,28.2h-3.9L267.2,175.1z M257.7,171.9      h8.4l-4.1-12.1h-0.1L257.7,171.9z" id="XMLID_324_"/><path class="st3" d="M330,268.3v-28.2h9.2c2.9,0,5.2,0.6,6.9,1.9s2.5,3.2,2.5,5.7c0,1.2-0.4,2.3-1.1,3.3      c-0.7,1-1.7,1.7-3,2.2c1.8,0.3,3.3,1.1,4.4,2.4c1.1,1.3,1.6,2.9,1.6,4.7c0,2.6-0.8,4.5-2.5,5.9c-1.7,1.4-3.9,2-6.8,2H330z       M333.8,252.1h6.2c1.4,0,2.6-0.4,3.5-1.2c0.9-0.8,1.3-1.9,1.3-3.3c0-1.5-0.5-2.7-1.4-3.4c-1-0.8-2.3-1.1-4.1-1.1h-5.4V252.1z       M333.8,255v10.2h7.3c1.7,0,3.1-0.4,4.1-1.3c1-0.9,1.4-2.1,1.4-3.6c0-1.6-0.5-2.8-1.5-3.8c-1-1-2.3-1.5-4-1.5h-0.3H333.8z" id="XMLID_320_"/><path class="st3" d="M272.1,348.7l0,0.1c0,2.6-0.9,4.7-2.7,6.4c-1.9,1.7-4.3,2.6-7.3,2.6      c-3.1,0-5.6-1.1-7.6-3.3c-1.9-2.2-2.9-5-2.9-8.3v-4.9c0-3.4,1-6.2,2.9-8.4c1.9-2.2,4.5-3.3,7.6-3.3c3.1,0,5.6,0.8,7.4,2.5      c1.8,1.6,2.7,3.8,2.7,6.5l0,0.1h-3.6c0-1.9-0.6-3.4-1.7-4.5c-1.1-1.1-2.7-1.7-4.8-1.7c-2.1,0-3.7,0.8-4.9,2.5      c-1.2,1.7-1.8,3.7-1.8,6.2v4.9c0,2.5,0.6,4.6,1.8,6.2c1.2,1.7,2.9,2.5,4.9,2.5c2.1,0,3.6-0.6,4.8-1.7c1.1-1.1,1.7-2.6,1.7-4.6      H272.1z" id="XMLID_318_"/><path class="st3" d="M161.6,268.1v-28.2h8.9c3.7,0,6.6,1.1,8.9,3.4c2.2,2.3,3.4,5.2,3.4,8.8v3.8      c0,3.6-1.1,6.5-3.4,8.8c-2.2,2.2-5.2,3.4-8.9,3.4H161.6z M165.4,242.9v22.2h5c2.6,0,4.7-0.9,6.2-2.6c1.5-1.7,2.3-3.9,2.3-6.6      v-3.9c0-2.7-0.8-4.8-2.3-6.6c-1.5-1.7-3.6-2.6-6.2-2.6H165.4z" id="XMLID_315_"/></g></g></g></g></svg>