<?xml version="1.0" ?><svg id="Layer_1" style="enable-background:new 0 0 512 512;" version="1.1" viewBox="0 0 512 512" xml:space="preserve" xmlns="http://www.w3.org/2000/svg" xmlns:xlink="http://www.w3.org/1999/xlink"><style type="text/css">
	.st0{fill:#40897B;}
	.st1{opacity:0.1;}
	.st2{fill:#66B6A6;}
	.st3{fill:#FFFFFF;}
</style><g><g><circle class="st0" cx="256" cy="256" id="XMLID_34_" r="250"/><circle class="st1" cx="262.8" cy="265.3" id="XMLID_12_" r="202.8"/><circle class="st2" cx="256" cy="256" id="XMLID_11_" r="202.8"/></g><g><g><path class="st3" d="M396,254.2c-0.5-37.9-16-72.2-40.9-97.2c13.6,13.7,20.5,31.6,20.5,49.5     C387.8,218.8,395.5,235.6,396,254.2z" id="XMLID_45_"/><path class="st3" d="M256,256c13.7-13.7,31.6-20.5,49.5-20.5c2.5-2.5,4.7-5.1,6.8-7.9     c-6.1-12-15.9-21.8-27.9-27.9c-2.8,2.1-5.5,4.4-7.9,6.8C276.5,224.4,269.7,242.3,256,256z" id="XMLID_44_"/><path class="st3" d="M256,256c0,19.3-7.8,36.8-20.5,49.5c0,3.5,0.3,7,0.8,10.4c6.2,2,12.8,3.1,19.7,3.1     s13.5-1.1,19.7-3.1c0.5-3.5,0.8-6.9,0.8-10.4C263.8,292.8,256,275.3,256,256z" id="XMLID_43_"/><path class="st3" d="M199.7,227.6c-8.6-11.6-13.7-26-13.7-41.6c-19.3,0-36.8,7.8-49.5,20.5     c0,17.9,6.8,35.8,20.5,49.5c11-11,24.8-17.6,39.1-19.7C197.1,233.3,198.3,230.4,199.7,227.6z" id="XMLID_42_"/><path class="st3" d="M256,116c-38.6,0-73.5,15.6-98.9,40.9c13.7-13.6,31.5-20.4,49.4-20.4     C219.2,123.8,236.7,116,256,116z" id="XMLID_41_"/><path class="st3" d="M236.3,196.1c2.1-14.3,8.7-28.1,19.7-39.1c-13.7-13.7-31.6-20.5-49.5-20.5     C193.8,149.2,186,166.7,186,186c15.6,0,29.9,5.1,41.6,13.7C230.4,198.3,233.3,197.1,236.3,196.1z" id="XMLID_40_"/><path class="st3" d="M355,157c-25.3-25.3-60.3-41-99-41c19.3,0,36.8,7.8,49.5,20.5     C323.4,136.5,341.3,143.3,355,157z" id="XMLID_39_"/><path class="st3" d="M227.6,312.3c-11.6,8.6-26,13.7-41.6,13.7c0,19.3,7.8,36.8,20.5,49.5     c17.9,0,35.8-6.8,49.5-20.5c-11-11-17.6-24.8-19.7-39.1C233.3,314.9,230.4,313.7,227.6,312.3z" id="XMLID_38_"/><path class="st3" d="M196.1,275.7C181.8,273.6,168,267,157,256c-13.7,13.7-20.5,31.6-20.5,49.5     c12.7,12.7,30.2,20.5,49.5,20.5c0-15.6,5.1-30,13.7-41.6C198.3,281.6,197.1,278.7,196.1,275.7z" id="XMLID_37_"/><path class="st3" d="M256,256c0-19.3,7.8-36.8,20.5-49.5c0-3.5-0.3-7-0.8-10.4c-6.2-2-12.8-3.1-19.7-3.1     s-13.5,1.1-19.7,3.1c-0.5,3.5-0.8,6.9-0.8,10.4C248.2,219.2,256,236.7,256,256z" id="XMLID_36_"/><path class="st3" d="M315.9,275.7c-1,3-2.2,5.9-3.6,8.7c8.6,11.6,13.7,26,13.7,41.6c19.3,0,36.8-7.8,49.5-20.5     c0-17.9-6.8-35.8-20.5-49.5C344,267,330.2,273.6,315.9,275.7z" id="XMLID_35_"/><path class="st3" d="M275.7,315.9C273.6,330.2,267,344,256,355c13.7,13.7,31.6,20.5,49.5,20.5     c12.7-12.7,20.5-30.2,20.5-49.5c-15.6,0-29.9-5.1-41.6-13.7C281.6,313.7,278.7,314.9,275.7,315.9z" id="XMLID_33_"/><path class="st3" d="M156.9,157.1c-24.9,24.9-40.4,59.2-40.9,97.1c0.5-18.6,8.2-35.4,20.5-47.7     C136.5,188.6,143.3,170.8,156.9,157.1z" id="XMLID_32_"/><path class="st3" d="M315.9,236.3c-3.5-0.5-6.9-0.8-10.4-0.8C292.8,248.2,275.3,256,256,256     c19.3,0,36.8,7.8,49.5,20.5c3.5,0,7-0.3,10.4-0.8c2-6.2,3.1-12.8,3.1-19.7C319.1,249.1,318,242.5,315.9,236.3z" id="XMLID_31_"/><path class="st3" d="M157.1,355.1c25.3,25.3,60.3,40.9,98.9,40.9c-19.3,0-36.8-7.8-49.5-20.5     C188.6,375.5,170.8,368.7,157.1,355.1z" id="XMLID_30_"/><path class="st3" d="M256,256c13.7,13.7,20.5,31.6,20.5,49.5c2.5,2.5,5.1,4.7,7.9,6.8c12-6.1,21.8-15.9,27.9-27.9     c-2.1-2.8-4.4-5.5-6.8-7.9C287.6,276.5,269.7,269.7,256,256z" id="XMLID_29_"/><path class="st3" d="M256,256c-13.7-13.7-20.5-31.6-20.5-49.5c-2.5-2.5-5.1-4.7-7.9-6.8     c-12,6.1-21.8,15.9-27.9,27.9c2.1,2.8,4.4,5.5,6.8,7.9C224.4,235.5,242.3,242.3,256,256z" id="XMLID_28_"/><path class="st3" d="M256,256c-13.7,13.7-31.6,20.5-49.5,20.5c-2.5,2.5-4.7,5.1-6.8,7.9     c6.1,12,15.9,21.8,27.9,27.9c2.8-2.1,5.5-4.4,7.9-6.8C235.5,287.6,242.3,269.7,256,256z" id="XMLID_27_"/><path class="st3" d="M256,396c38.7,0,73.6-15.7,99-41c-13.7,13.7-31.6,20.5-49.5,20.5     C292.8,388.2,275.3,396,256,396z" id="XMLID_26_"/><path class="st3" d="M284.4,199.7c11.6-8.6,26-13.7,41.6-13.7c0-19.3-7.8-36.8-20.5-49.5     c-17.9,0-35.8,6.8-49.5,20.5c11,11,17.6,24.8,19.7,39.1C278.7,197.1,281.6,198.3,284.4,199.7z" id="XMLID_25_"/><path class="st3" d="M355,355c25.3-25.3,41-60.3,41-99c0,19.3-7.8,36.8-20.5,49.5     C375.5,323.4,368.7,341.3,355,355z" id="XMLID_24_"/><path class="st3" d="M116,256c0,38.6,15.6,73.6,40.9,98.9c-13.6-13.7-20.4-31.5-20.4-49.4     C123.8,292.8,116,275.3,116,256z" id="XMLID_23_"/><path class="st3" d="M256,256c-19.3,0-36.8-7.8-49.5-20.5c-3.5,0-7,0.3-10.4,0.8c-2,6.2-3.1,12.8-3.1,19.7     c0,6.9,1.1,13.5,3.1,19.7c3.5,0.5,6.9,0.8,10.4,0.8C219.2,263.8,236.7,256,256,256z" id="XMLID_22_"/><path class="st3" d="M315.9,236.3c14.3,2.1,28.1,8.7,39.1,19.7c13.7-13.7,20.5-31.6,20.5-49.5     C362.8,193.8,345.3,186,326,186c0,15.6-5.1,29.9-13.7,41.6C313.7,230.4,314.9,233.3,315.9,236.3z" id="XMLID_21_"/><path class="st3" d="M396,254.2c0,0.6,0,1.2,0,1.8C396,255.4,396,254.8,396,254.2z" id="XMLID_20_"/><path class="st3" d="M116,256c0-0.6,0-1.2,0-1.8C116,254.8,116,255.4,116,256z" id="XMLID_19_"/><path class="st3" d="M355,355C355,355,355,355,355,355C355,355,355,355,355,355C355,355,355,355,355,355z" id="XMLID_18_"/><path class="st3" d="M157.1,156.9c0,0-0.1,0.1-0.1,0.1c0,0-0.1,0.1-0.1,0.1C157,157,157,157,157.1,156.9z" id="XMLID_17_"/><path class="st3" d="M156.9,354.9c0,0,0.1,0.1,0.1,0.1c0,0,0.1,0.1,0.1,0.1C157,355,157,355,156.9,354.9z" id="XMLID_16_"/><path class="st3" d="M355,157C355,157,355,157,355,157C355,157,355,157,355,157C355,157,355,157,355,157z" id="XMLID_15_"/></g><g><path class="st3" d="M256.8,145.5h-3.6v-14.7h-3.7v-2.7l7.3-0.6V145.5z"/><path class="st3" d="M345.4,180.9h-12v-2.3l5.5-6.2c0.8-1,1.4-1.8,1.8-2.5c0.3-0.7,0.5-1.3,0.5-1.9c0-0.7-0.2-1.3-0.6-1.8     c-0.4-0.4-0.9-0.7-1.7-0.7c-0.8,0-1.4,0.3-1.8,0.8c-0.4,0.6-0.6,1.3-0.6,2.1h-3.5l0-0.1c0-1.6,0.5-2.9,1.6-4     c1.1-1.1,2.5-1.6,4.4-1.6c1.8,0,3.3,0.5,4.3,1.4c1,0.9,1.5,2.2,1.5,3.8c0,1.1-0.3,2-0.9,2.9c-0.6,0.9-1.5,2.1-2.9,3.7l-2.9,3.5     l0,0.1h7.3V180.9z"/><path class="st3" d="M373,256.1c0.8,0,1.5-0.2,1.9-0.7c0.4-0.4,0.6-1.1,0.6-1.9c0-0.7-0.2-1.2-0.6-1.7c-0.4-0.4-1-0.7-1.8-0.7     c-0.7,0-1.2,0.2-1.6,0.6c-0.4,0.4-0.7,0.9-0.7,1.5h-3.5l0-0.1c0-1.4,0.5-2.5,1.6-3.5c1.1-0.9,2.5-1.4,4.2-1.4     c1.8,0,3.3,0.4,4.4,1.3c1.1,0.9,1.6,2.1,1.6,3.7c0,0.8-0.2,1.6-0.7,2.2c-0.5,0.7-1.1,1.2-1.9,1.6c0.9,0.4,1.7,0.9,2.2,1.6     c0.5,0.7,0.8,1.6,0.8,2.6c0,1.6-0.6,2.9-1.8,3.9c-1.2,0.9-2.7,1.4-4.5,1.4c-1.6,0-3-0.4-4.3-1.3c-1.2-0.9-1.8-2.1-1.8-3.7l0-0.1     h3.5c0,0.7,0.2,1.2,0.7,1.7c0.5,0.5,1.1,0.7,1.8,0.7c0.8,0,1.5-0.2,2-0.7c0.5-0.5,0.8-1.1,0.8-1.8c0-0.9-0.2-1.6-0.7-2.1     c-0.5-0.5-1.2-0.7-2.1-0.7h-2v-2.7H373z"/><path class="st3" d="M346.4,341.4h2v2.8h-2v3.9h-3.6v-3.9h-7.3l-0.2-2.1l7.4-11.8h3.6V341.4z M338.6,341.4h4.2v-6.5l-0.1,0     l-0.4,0.8L338.6,341.4z"/><path class="st3" d="M250.4,376.5l1-10h10v2.9h-7l-0.5,4.2c0.3-0.2,0.8-0.4,1.3-0.6c0.5-0.2,1.1-0.2,1.7-0.3     c1.7,0,2.9,0.5,3.9,1.5c0.9,1,1.4,2.5,1.4,4.4c0,1.7-0.5,3.2-1.5,4.3c-1,1.1-2.5,1.7-4.5,1.7c-1.6,0-3-0.4-4.2-1.3     s-1.7-2.1-1.7-3.6l0-0.1l3.4-0.2c0,0.7,0.2,1.3,0.7,1.7c0.4,0.4,1,0.6,1.8,0.6c0.8,0,1.5-0.3,1.9-0.8c0.4-0.6,0.6-1.3,0.6-2.4     c0-1-0.2-1.8-0.6-2.5c-0.4-0.6-1.1-0.9-1.9-0.9c-0.7,0-1.2,0.1-1.6,0.4c-0.4,0.3-0.6,0.6-0.8,1L250.4,376.5z"/><path class="st3" d="M178.3,335.7c0.7,0,1.3,0.1,1.9,0.2c0.6,0.1,1.2,0.3,1.8,0.6l-0.6,2.6c-0.6-0.2-1.1-0.3-1.5-0.4     c-0.4-0.1-1-0.1-1.5-0.1c-1,0-1.9,0.4-2.5,1.2c-0.6,0.8-1,1.9-1,3.3v0.6c0.5-0.5,1-0.8,1.7-1.1c0.7-0.3,1.4-0.4,2.2-0.4     c1.5,0,2.7,0.5,3.6,1.6c0.9,1.1,1.3,2.5,1.3,4.2c0,1.8-0.6,3.2-1.7,4.4c-1.1,1.1-2.6,1.7-4.4,1.7c-1.9,0-3.4-0.6-4.6-1.9     c-1.2-1.3-1.8-3-1.8-5.2v-3.7c0-2.3,0.7-4.1,2-5.4C174.6,336.3,176.3,335.7,178.3,335.7z M177.6,344.8c-0.6,0-1.2,0.1-1.6,0.3     c-0.5,0.2-0.8,0.5-1.1,0.9v1c0,1.4,0.3,2.4,0.8,3.2c0.5,0.8,1.2,1.1,2,1.1c0.7,0,1.3-0.3,1.8-0.9c0.4-0.6,0.7-1.4,0.7-2.4     c0-1-0.2-1.8-0.7-2.3C178.9,345.1,178.3,344.8,177.6,344.8z"/><path class="st3" d="M145.2,254.3c-2,2.4-3.4,4.5-4.1,6.4c-0.7,1.9-1.1,4.1-1.1,6.5v2.2h-3.6v-2.2c0-2.5,0.5-4.7,1.4-6.8     c0.9-2,2.2-4.1,4-6.1h-9.1v-2.8h12.5V254.3z"/><path class="st3" d="M175.7,172.3c0,0.9-0.2,1.7-0.7,2.3c-0.5,0.7-1.1,1.2-1.9,1.6c1,0.4,1.7,1,2.3,1.7c0.6,0.7,0.9,1.6,0.9,2.6     c0,1.7-0.6,2.9-1.7,3.9c-1.1,0.9-2.6,1.4-4.4,1.4c-1.9,0-3.4-0.5-4.6-1.4c-1.2-0.9-1.8-2.2-1.8-3.9c0-1,0.3-1.8,0.9-2.6     c0.6-0.7,1.4-1.3,2.4-1.7c-0.8-0.4-1.5-0.9-2-1.6c-0.5-0.7-0.7-1.5-0.7-2.3c0-1.6,0.5-2.8,1.6-3.6c1.1-0.8,2.5-1.3,4.2-1.3     c1.6,0,3,0.4,4,1.3C175.2,169.5,175.7,170.7,175.7,172.3z M172.7,180.4c0-0.8-0.2-1.4-0.7-2c-0.5-0.5-1.1-0.8-1.8-0.8     c-0.8,0-1.5,0.3-2,0.8c-0.5,0.5-0.8,1.2-0.8,2c0,0.8,0.3,1.5,0.8,1.9c0.5,0.5,1.2,0.7,2,0.7c0.7,0,1.3-0.2,1.8-0.7     C172.5,181.8,172.7,181.2,172.7,180.4z M172.1,172.5c0-0.7-0.2-1.3-0.6-1.7c-0.4-0.4-0.8-0.6-1.4-0.6c-0.7,0-1.2,0.2-1.6,0.6     c-0.4,0.4-0.6,1-0.6,1.7c0,0.7,0.2,1.3,0.6,1.8c0.4,0.4,0.9,0.7,1.6,0.7c0.6,0,1.1-0.2,1.4-0.7     C172,173.8,172.1,173.2,172.1,172.5z"/></g></g></g></svg>