<?xml version="1.0" ?><svg id="Layer_1" style="enable-background:new 0 0 512 512;" version="1.1" viewBox="0 0 512 512" xml:space="preserve" xmlns="http://www.w3.org/2000/svg" xmlns:xlink="http://www.w3.org/1999/xlink"><style type="text/css">
	.st0{fill:#40897B;}
	.st1{opacity:0.1;}
	.st2{fill:#66B6A6;}
	.st3{fill:#FFFFFF;}
</style><g><g><circle class="st0" cx="256" cy="256" id="XMLID_3_" r="250"/><circle class="st1" cx="262.8" cy="265.3" id="XMLID_2_" r="202.8"/><circle class="st2" cx="256" cy="256" id="XMLID_1_" r="202.8"/></g><g><g><path class="st3" d="M297.1,152.8v123.4c0,9-7.3,16.2-16.2,16.2h0c-9,0-16.2-7.3-16.2-16.2V152.8     c0-9,7.3-16.2,16.2-16.2h0C289.8,136.6,297.1,143.9,297.1,152.8z" id="XMLID_9_"/><path class="st3" d="M225.8,232.7H219l-1.6,4.7h-2.5l6.5-18.2h2.1l6.4,18.2h-2.5L225.8,232.7z M219.7,230.6h5.4     l-2.6-7.8h-0.1L219.7,230.6z" id="XMLID_2011_"/><path class="st3" d="M232.6,203.3v-18.2h5.9c1.9,0,3.4,0.4,4.5,1.2c1.1,0.8,1.6,2,1.6,3.7     c0,0.8-0.2,1.5-0.7,2.1c-0.5,0.6-1.1,1.1-1.9,1.4c1.2,0.2,2.1,0.7,2.8,1.5c0.7,0.9,1,1.9,1,3.1c0,1.7-0.5,2.9-1.6,3.8     c-1.1,0.9-2.5,1.3-4.4,1.3H232.6z M235.1,192.8h4c0.9,0,1.7-0.3,2.2-0.8s0.9-1.2,0.9-2.1c0-1-0.3-1.7-0.9-2.2     c-0.6-0.5-1.5-0.7-2.7-0.7h-3.5V192.8z M235.1,194.7v6.6h4.7c1.1,0,2-0.3,2.6-0.8c0.6-0.6,0.9-1.3,0.9-2.4c0-1-0.3-1.8-0.9-2.4     c-0.6-0.6-1.5-0.9-2.6-1h-0.2H235.1z" id="XMLID_2003_"/><path class="st3" d="M261.1,165.2L261.1,165.2c0.1,1.7-0.5,3.1-1.7,4.2c-1.2,1.1-2.8,1.7-4.7,1.7     c-2,0-3.6-0.7-4.9-2.1c-1.3-1.4-1.9-3.2-1.9-5.4v-3.1c0-2.2,0.6-4,1.9-5.4c1.3-1.4,2.9-2.1,4.9-2.1c2,0,3.6,0.5,4.8,1.6     c1.2,1.1,1.8,2.5,1.7,4.2l0,0.1h-2.3c0-1.2-0.4-2.2-1.1-2.9c-0.7-0.7-1.8-1.1-3.1-1.1c-1.3,0-2.4,0.5-3.2,1.6     c-0.8,1.1-1.2,2.4-1.2,4v3.2c0,1.6,0.4,2.9,1.2,4c0.8,1.1,1.9,1.6,3.2,1.6c1.3,0,2.4-0.4,3.1-1.1c0.7-0.7,1.1-1.7,1.1-3H261.1z" id="XMLID_1999_"/><path class="st3" d="M275.1,134.2V116h5.7c2.4,0,4.3,0.7,5.7,2.2c1.4,1.5,2.2,3.3,2.2,5.7v2.5     c0,2.3-0.7,4.2-2.2,5.7c-1.4,1.5-3.3,2.2-5.7,2.2H275.1z M277.6,117.9v14.3h3.3c1.7,0,3-0.6,4-1.7c1-1.1,1.5-2.5,1.5-4.3v-2.5     c0-1.7-0.5-3.1-1.5-4.2c-1-1.1-2.3-1.7-4-1.7H277.6z" id="XMLID_1993_"/></g><path class="st3" d="M280.9,296.7c-11.2,0-20.4-9.1-20.4-20.4V171.7c-6.9,1.8-12.1,8.2-12.1,15.7v123.4    c0,9,7.3,16.2,16.2,16.2h0c9,0,16.2-7.3,16.2-16.2V296.7L280.9,296.7z" id="XMLID_8_"/><g><polygon class="st3" id="XMLID_7_" points="264.7,276.3 264.7,276.3 264.7,221.8 264.7,221.8    "/><path class="st3" d="M244.3,310.8V206.1c-6.9,1.8-12.1,8.2-12.1,15.7v123.4c0,9,7.3,16.2,16.2,16.2l0,0     c9,0,16.2-7.3,16.2-16.2v-14.1C253.4,331.2,244.3,322,244.3,310.8z" id="XMLID_6_"/></g><g><path class="st3" d="M248.4,365.7c-11.2,0-20.4-9.1-20.4-20.4V240.6c-6.9,1.8-12.1,8.2-12.1,15.7v123.4     c0,9,7.3,16.2,16.2,16.2h0c9,0,16.2-7.3,16.2-16.2L248.4,365.7L248.4,365.7z" id="XMLID_5_"/><polygon class="st3" id="XMLID_4_" points="248.4,310.8 248.4,310.8 248.4,256.3 248.4,256.3    "/></g></g></g></svg>