<?xml version="1.0" ?><svg id="Layer_1" style="enable-background:new 0 0 512 512;" version="1.1" viewBox="0 0 512 512" xml:space="preserve" xmlns="http://www.w3.org/2000/svg" xmlns:xlink="http://www.w3.org/1999/xlink"><style type="text/css">
	.st0{fill:#635A4B;}
	.st1{opacity:0.1;}
	.st2{fill:#847D6E;}
	.st3{fill:#FFFFFF;}
</style><g><g><circle class="st0" cx="256" cy="256" id="XMLID_363_" r="250"/><circle class="st1" cx="262.8" cy="265.3" id="XMLID_362_" r="202.8"/><circle class="st2" cx="256" cy="256" id="XMLID_361_" r="202.8"/></g><g><g id="XMLID_165_"><g id="XMLID_179_"><path class="st3" d="M230.2,281.8c-17.2,17.2-39.7,25.8-62.2,25.8c-18.3,0-36.6-5.7-52-17      c12.7,51.9,53.6,92.7,105.5,105.5C196.2,361.6,199.1,312.9,230.2,281.8z" id="XMLID_186_"/><path class="st3" d="M230.2,230.2c-31.1-31.1-34.1-79.8-8.7-114.2c-51.9,12.7-92.7,53.6-105.5,105.5      c15.4-11.4,33.7-17,52-17C190.5,204.5,213.1,213.1,230.2,230.2z" id="XMLID_185_"/><path class="st3" d="M256,168c0,22.5-8.6,45-25.8,62.2S190.5,256,168,256c22.5,0,45,8.6,62.2,25.8      c17.2,17.2,25.8,39.7,25.8,62.2c0-22.5,8.6-45,25.8-62.2c17.2-17.2,39.7-25.8,62.2-25.8c-22.5,0-45-8.6-62.2-25.8      C264.6,213.1,256,190.5,256,168z" id="XMLID_184_"/><path class="st3" d="M256,311.9c-4.6-12.7-12-24.3-21.8-34.1c-9.8-9.8-21.4-17.2-34.1-21.8      c12.7-4.6,24.3-12,34.1-21.8c9.8-9.8,17.2-21.5,21.8-34.1c4.6,12.7,12,24.3,21.8,34.1c9.8,9.8,21.4,17.2,34.1,21.8      c-12.7,4.6-24.3,12-34.1,21.8S260.6,299.3,256,311.9z" id="XMLID_183_"/><path class="st3" d="M281.8,230.2c17.2-17.2,39.7-25.8,62.2-25.8c18.3,0,36.6,5.7,52,17      c-12.7-51.9-53.6-92.7-105.5-105.5C315.8,150.4,312.9,199.1,281.8,230.2z" id="XMLID_182_"/><g id="XMLID_180_"><path class="st3" d="M281.8,281.8c31.1,31.1,34.1,79.8,8.7,114.2c51.9-12.7,92.7-53.6,105.5-105.5       c-15.4,11.4-33.7,17-52,17C321.5,307.5,298.9,298.9,281.8,281.8z" id="XMLID_181_"/></g></g><g id="XMLID_166_"><path class="st3" d="M262.2,163.7h-12.4l-2.9,8.5h-4.5l11.9-32.9h3.8l11.6,32.9h-4.5L262.2,163.7z M251.1,160      h9.8l-4.8-14.1H256L251.1,160z" id="XMLID_176_"/><path class="st3" d="M335.6,272.6v-32.9h10.7c3.4,0,6.1,0.7,8.1,2.2c1.9,1.5,2.9,3.7,2.9,6.7      c0,1.4-0.4,2.7-1.3,3.8c-0.9,1.1-2,2-3.5,2.6c2.2,0.3,3.9,1.2,5.1,2.8c1.3,1.6,1.9,3.4,1.9,5.5c0,3-1,5.3-2.9,6.9      c-2,1.6-4.6,2.4-8,2.4H335.6z M340,253.6h7.2c1.7,0,3-0.5,4-1.4s1.6-2.2,1.6-3.8c0-1.8-0.6-3.1-1.7-4c-1.1-0.9-2.7-1.3-4.8-1.3      H340V253.6z M340,257.1v12h8.6c2,0,3.6-0.5,4.7-1.5c1.1-1,1.7-2.4,1.7-4.3c0-1.8-0.6-3.3-1.7-4.4c-1.1-1.1-2.7-1.7-4.6-1.8h-0.3      H340z" id="XMLID_172_"/><path class="st3" d="M268,368.7l0,0.1c0.1,3-1,5.5-3.2,7.5c-2.2,2-5,3-8.6,3c-3.6,0-6.6-1.3-8.8-3.8      c-2.3-2.6-3.4-5.8-3.4-9.7v-5.7c0-3.9,1.1-7.2,3.4-9.8c2.3-2.6,5.2-3.9,8.8-3.9c3.6,0,6.5,1,8.6,2.9c2.1,1.9,3.2,4.5,3.1,7.7      l0,0.1h-4.1c0-2.2-0.7-4-2-5.3c-1.3-1.3-3.2-2-5.6-2c-2.4,0-4.3,1-5.8,2.9c-1.4,1.9-2.2,4.4-2.2,7.2v5.7c0,2.9,0.7,5.3,2.2,7.3      c1.4,1.9,3.4,2.9,5.8,2.9c2.4,0,4.3-0.6,5.6-1.9c1.3-1.3,2-3.1,2-5.4H268z" id="XMLID_170_"/><path class="st3" d="M138.8,272.4v-32.9h10.3c4.3,0,7.7,1.3,10.4,4c2.6,2.6,3.9,6.1,3.9,10.2v4.5      c0,4.2-1.3,7.6-3.9,10.2c-2.6,2.6-6.1,3.9-10.4,3.9H138.8z M143.3,243v25.9h5.9c3,0,5.4-1,7.2-3c1.8-2,2.6-4.6,2.6-7.7v-4.5      c0-3.1-0.9-5.7-2.6-7.7c-1.8-2-4.2-3-7.2-3H143.3z" id="XMLID_167_"/></g></g></g></g></svg>